HIERARCHY
ROOT hip
{
  OFFSET 0 0 0
  CHANNELS 6 Xposition Yposition Zposition Zrotation Yrotation Xrotation
  JOINT abdomen
  {
    OFFSET 0 20.6881 -0.73152
    CHANNELS 3 Zrotation Xrotation Yrotation
    JOINT chest
    {
      OFFSET 0 11.7043 -0.48768
      CHANNELS 3 Zrotation Xrotation Yrotation
      JOINT neck
      {
        OFFSET 0 22.1894 -2.19456
        CHANNELS 3 Zrotation Xrotation Yrotation
        JOINT head
        {
          OFFSET -0.24384 7.07133 1.2192
          CHANNELS 3 Zrotation Xrotation Yrotation
          JOINT leftEye
          {
            OFFSET 4.14528 8.04674 8.04672
            CHANNELS 3 Zrotation Xrotation Yrotation
            End Site
            {
              OFFSET 1 0 0
            }
          }
          JOINT rightEye
          {
            OFFSET -3.6576 8.04674 8.04672
            CHANNELS 3 Zrotation Xrotation Yrotation
            End Site
            {
              OFFSET 1 0 0
            }
          }
        }
      }
      JOINT rCollar
      {
        OFFSET -2.68224 19.2634 -4.8768
        CHANNELS 3 Zrotation Xrotation Yrotation
        JOINT rShldr
        {
          OFFSET -8.77824 -1.95073 1.46304
          CHANNELS 3 Zrotation Xrotation Yrotation
          JOINT rForeArm
          {
            OFFSET -28.1742 -1.7115 0.48768
            CHANNELS 3 Zrotation Xrotation Yrotation
            JOINT rHand
            {
              OFFSET -22.5879 0.773209 7.07136
              CHANNELS 3 Zrotation Xrotation Yrotation
              JOINT rThumb1
              {
                OFFSET -1.2192 -0.487915 3.41376
                CHANNELS 3 Zrotation Xrotation Yrotation
                JOINT rThumb2
                {
                  OFFSET -3.37035 -0.52449 3.41376
                  CHANNELS 3 Zrotation Xrotation Yrotation
                  End Site
                  {
                    OFFSET -1.78271 -1.18214 1.43049
                  }
                }
              }
              JOINT rIndex1
              {
                OFFSET -7.75947 0.938293 5.60832
                CHANNELS 3 Zrotation Xrotation Yrotation
                JOINT rIndex2
                {
                  OFFSET -2.54057 -0.884171 1.56538
                  CHANNELS 3 Zrotation Xrotation Yrotation
                  End Site
                  {
                    OFFSET -1.62519 -0.234802 1.16502
                  }
                }
              }
              JOINT rMid1
              {
                OFFSET -8.24714 1.18213 3.41376
                CHANNELS 3 Zrotation Xrotation Yrotation
                JOINT rMid2
                {
                  OFFSET -3.10165 -0.590103 1.0647
                  CHANNELS 3 Zrotation Xrotation Yrotation
                  End Site
                  {
                    OFFSET -2.48547 -0.328903 0.83742
                  }
                }
              }
              JOINT rRing1
              {
                OFFSET -8.82822 0.546677 1.51678
                CHANNELS 3 Zrotation Xrotation Yrotation
                JOINT rRing2
                {
                  OFFSET -2.60934 -0.819778 -0.0198488
                  CHANNELS 3 Zrotation Xrotation Yrotation
                  End Site
                  {
                    OFFSET -2.33842 -0.294052 0.168128
                  }
                }
              }
              JOINT rPinky1
              {
                OFFSET -8.27202 -0.0477905 -0.4584
                CHANNELS 3 Zrotation Xrotation Yrotation
                JOINT rPinky2
                {
                  OFFSET -1.82734 -0.647385 -0.700984
                  CHANNELS 3 Zrotation Xrotation Yrotation
                  End Site
                  {
                    OFFSET -1.69225 -0.51767 -0.607171
                  }
                }
              }
            }
          }
        }
      }
      JOINT lCollar
      {
        OFFSET 2.68224 19.2634 -4.8768
        CHANNELS 3 Zrotation Xrotation Yrotation
        JOINT lShldr
        {
          OFFSET 8.77824 -1.95073 1.46304
          CHANNELS 3 Zrotation Xrotation Yrotation
          JOINT lForeArm
          {
            OFFSET 28.1742 -1.7115 0.48768
            CHANNELS 3 Zrotation Xrotation Yrotation
            JOINT lHand
            {
              OFFSET 22.5879 0.773209 7.07136
              CHANNELS 3 Zrotation Xrotation Yrotation
              JOINT lThumb1
              {
                OFFSET 1.2192 -0.487915 3.41376
                CHANNELS 3 Zrotation Xrotation Yrotation
                JOINT lThumb2
                {
                  OFFSET 3.37035 -0.52449 3.41376
                  CHANNELS 3 Zrotation Xrotation Yrotation
                  End Site
                  {
                    OFFSET 1.78271 -1.18214 1.43049
                  }
                }
              }
              JOINT lIndex1
              {
                OFFSET 7.75947 0.938293 5.60832
                CHANNELS 3 Zrotation Xrotation Yrotation
                JOINT lIndex2
                {
                  OFFSET 2.54057 -0.884171 1.56538
                  CHANNELS 3 Zrotation Xrotation Yrotation
                  End Site
                  {
                    OFFSET 1.62519 -0.234802 1.16502
                  }
                }
              }
              JOINT lMid1
              {
                OFFSET 8.24714 1.18213 3.41376
                CHANNELS 3 Zrotation Xrotation Yrotation
                JOINT lMid2
                {
                  OFFSET 3.10165 -0.590103 1.0647
                  CHANNELS 3 Zrotation Xrotation Yrotation
                  End Site
                  {
                    OFFSET 2.48547 -0.328903 0.83742
                  }
                }
              }
              JOINT lRing1
              {
                OFFSET 8.82822 0.546677 1.51678
                CHANNELS 3 Zrotation Xrotation Yrotation
                JOINT lRing2
                {
                  OFFSET 2.60934 -0.819778 -0.0198488
                  CHANNELS 3 Zrotation Xrotation Yrotation
                  End Site
                  {
                    OFFSET 2.33842 -0.294052 0.168128
                  }
                }
              }
              JOINT lPinky1
              {
                OFFSET 8.27202 -0.0477905 -0.4584
                CHANNELS 3 Zrotation Xrotation Yrotation
                JOINT lPinky2
                {
                  OFFSET 1.82734 -0.647385 -0.700984
                  CHANNELS 3 Zrotation Xrotation Yrotation
                  End Site
                  {
                    OFFSET 1.69225 -0.51767 -0.607171
                  }
                }
              }
            }
          }
        }
      }
    }
  }
  JOINT rButtock
  {
    OFFSET -8.77824 4.35084 1.2192
    CHANNELS 3 Zrotation Xrotation Yrotation
    JOINT rThigh
    {
      OFFSET 0 -1.70687 -2.19456
      CHANNELS 3 Zrotation Xrotation Yrotation
      JOINT rShin
      {
        OFFSET 0 -36.8199 0.73152
        CHANNELS 3 Zrotation Xrotation Yrotation
        JOINT rFoot
        {
          OFFSET 0.73152 -45.1104 -5.12064
          CHANNELS 3 Zrotation Xrotation Yrotation
          End Site
          {
            OFFSET -1.1221 -3.69964 12.103
          }
        }
      }
    }
  }
  JOINT lButtock
  {
    OFFSET 8.77824 4.35084 1.2192
    CHANNELS 3 Zrotation Xrotation Yrotation
    JOINT lThigh
    {
      OFFSET 0 -1.70687 -2.19456
      CHANNELS 3 Zrotation Xrotation Yrotation
      JOINT lShin
      {
        OFFSET 0 -36.8199 0.73152
        CHANNELS 3 Zrotation Xrotation Yrotation
        JOINT lFoot
        {
          OFFSET -0.73152 -45.1104 -5.12064
          CHANNELS 3 Zrotation Xrotation Yrotation
          End Site
          {
            OFFSET 1.1221 -3.69964 12.103
          }
        }
      }
    }
  }
}
MOTION
Frames:	4
Frame Time:	0.00833333
-30.6995 83.7045 -8.58906 172.185 36.815 -173.086 -6.00639 -6.7469 9.85074 -0.553144 1.76421 2.9834 -3.95561 -15.5727 -6.12246 10.9468 36.1575 -9.3737 -0.0 0.0 0.0 -0.0 0.0 0.0 -3.46342e-13 4.67985e-14 5.01609e-13 81.0969 46.8889 -15.1989 -27.9194 -30.1436 67.464 -0.12204 9.91713 1.40797 -2.51881e-10 6.7166e-10 1.2835e-09 -4.34587e-10 1.13529e-09 2.2225e-09 -2.51877e-10 6.71659e-10 1.2835e-09 7.73091 5.47488 0.417314 -2.51884e-10 6.71666e-10 1.28349e-09 2.90554 0.965183 0.102902 -2.51877e-10 6.71666e-10 1.2835e-09 10.2786 0.731801 0.0259123 -2.51884e-10 6.71666e-10 1.28351e-09 2.22167 -0.733487 -0.20892 -3.46365e-13 4.68046e-14 5.01491e-13 -87.8723 47.3065 37.3296 28.2351 -38.9076 -81.9904 0.44149 18.5501 -2.70312 3.1943e-09 -1.06447e-08 -3.52565e-09 5.46948e-09 -1.84231e-08 -6.13681e-09 3.1943e-09 -1.06447e-08 -3.52565e-09 -7.73091 5.47488 -0.417314 3.1943e-09 -1.06447e-08 -3.52565e-09 -2.90554 0.965183 -0.102902 3.1943e-09 -1.06447e-08 -3.52565e-09 -10.2786 0.731801 -0.0259123 3.19431e-09 -1.06447e-08 -3.52566e-09 -2.22167 -0.733487 0.20892 -2.03217e-16 0.0 -3.88251e-19 5.76722 -0.427291 0.254871 -0.431168 43.4519 0.627866 5.2101 25.2063 -15.8888 2.03217e-16 0.0 3.88251e-19 -2.55966 -36.248 -9.51551 0.200837 28.1808 -0.183402 -1.63771 18.0995 8.67807
-29.9069 82.9303 -10.1535 172.008 37.0781 -173.652 -6.24302 -6.32663 9.2651 -0.420264 1.81589 2.80414 -3.76535 -15.4969 -5.99528 10.934 36.1543 -9.23121 -0.0 0.0 0.0 -0.0 0.0 0.0 -3.98511e-13 -3.57787e-15 8.791e-13 81.5069 46.0025 -15.4067 -27.8138 -29.5919 66.592 -0.132102 10.315 1.46567 1.11366e-09 -1.35131e-09 -7.37121e-10 1.90741e-09 -2.30216e-09 -1.2797e-09 1.11367e-09 -1.35132e-09 -7.37121e-10 7.73091 5.47488 0.417314 1.11366e-09 -1.3513e-09 -7.37128e-10 2.90554 0.965183 0.102902 1.11366e-09 -1.3513e-09 -7.3712e-10 10.2786 0.731801 0.0259123 1.11365e-09 -1.3513e-09 -7.37111e-10 2.22167 -0.733487 -0.20892 -3.9861e-13 -3.57865e-15 8.78939e-13 -87.2911 47.4707 36.5988 28.2377 -38.8714 -81.9352 0.43416 18.4023 -2.68 3.98247e-09 -1.36318e-08 -4.80559e-09 6.81015e-09 -2.35682e-08 -8.35639e-09 3.98247e-09 -1.36318e-08 -4.80558e-09 -7.73091 5.47488 -0.417314 3.98247e-09 -1.36318e-08 -4.80559e-09 -2.90554 0.965183 -0.102902 3.98247e-09 -1.36318e-08 -4.80559e-09 -10.2786 0.731801 -0.0259123 3.98247e-09 -1.36318e-08 -4.8056e-09 -2.22167 -0.733487 0.20892 -2.03217e-16 0.0 -3.88251e-19 5.2136 -1.57538 -0.392236 -0.529286 46.9123 0.720848 5.01419 24.2034 -16.2536 2.03217e-16 0.0 3.88251e-19 -2.87634 -35.533 -8.90756 0.221706 29.7659 -0.185551 -1.54009 16.6846 9.25222
-29.1352 82.1278 -11.7089 171.732 37.335 -174.281 -6.582 -5.86109 8.66429 -0.274607 1.85555 2.62092 -3.58125 -15.4283 -5.86877 10.9281 36.1141 -9.09492 -0.0 0.0 0.0 -0.0 0.0 0.0 -4.35363e-13 -5.09727e-14 1.20272e-12 81.9252 45.1056 -15.5999 -27.6909 -29.0074 65.6731 -0.142558 10.7072 1.52272 2.39921e-09 -3.25149e-09 -2.61954e-09 4.11295e-09 -5.53038e-09 -4.5427e-09 2.39923e-09 -3.25152e-09 -2.61954e-09 7.73091 5.47488 0.417314 2.39921e-09 -3.2515e-09 -2.61954e-09 2.90554 0.965183 0.102902 2.39922e-09 -3.2515e-09 -2.61954e-09 10.2786 0.731801 0.0259123 2.39921e-09 -3.25149e-09 -2.61953e-09 2.22167 -0.733487 -0.20892 -4.35538e-13 -5.098e-14 1.20251e-12 -86.6353 47.6755 35.7341 28.2472 -38.7915 -81.7964 0.425772 18.2307 -2.65323 4.59343e-09 -1.60224e-08 -5.85016e-09 7.84825e-09 -2.76833e-08 -1.0167e-08 4.59343e-09 -1.60224e-08 -5.85015e-09 -7.73091 5.47488 -0.417314 4.59343e-09 -1.60224e-08 -5.85016e-09 -2.90554 0.965183 -0.102902 4.59343e-09 -1.60224e-08 -5.85015e-09 -10.2786 0.731801 -0.0259123 4.59344e-09 -1.60224e-08 -5.85016e-09 -2.22167 -0.733487 0.20892 -2.03217e-16 0.0 -3.88251e-19 4.53701 -2.83804 -1.03751 -0.64804 50.4388 0.834812 4.81406 23.2395 -16.6105 2.03217e-16 0.0 3.88251e-19 -3.29365 -34.7803 -8.35705 0.245266 31.4701 -0.193329 -1.40993 15.1466 9.9417
-28.3807 81.3174 -13.255 171.342 37.6042 -174.982 -7.04848 -5.33125 8.09305 -0.105843 1.87359 2.4448 -3.43004 -15.3737 -5.74575 10.9242 35.9988 -8.96017 -0.0 0.0 0.0 -0.0 0.0 0.0 -4.45534e-13 -9.38225e-14 1.27237e-12 82.348 44.2117 -15.7883 -27.5553 -28.4117 64.7191 -0.152573 11.0656 1.57499 3.00377e-09 -4.12357e-09 -3.36841e-09 5.15237e-09 -7.01358e-09 -5.84167e-09 3.00379e-09 -4.12359e-09 -3.36842e-09 7.73091 5.47488 0.417314 3.00377e-09 -4.12357e-09 -3.36842e-09 2.90554 0.965183 0.102902 3.00377e-09 -4.12357e-09 -3.36841e-09 10.2786 0.731801 0.0259123 3.00376e-09 -4.12357e-09 -3.3684e-09 2.22167 -0.733487 -0.20892 -4.45747e-13 -9.38316e-14 1.27212e-12 -85.8988 47.914 34.6653 28.2682 -38.6384 -81.5148 0.417522 18.0605 -2.6267 4.60891e-09 -1.61331e-08 -5.95556e-09 7.87239e-09 -2.7867e-08 -1.03481e-08 4.60891e-09 -1.61331e-08 -5.95555e-09 -7.73091 5.47488 -0.417314 4.60891e-09 -1.61331e-08 -5.95555e-09 -2.90554 0.965183 -0.102902 4.60891e-09 -1.61331e-08 -5.95555e-09 -10.2786 0.731801 -0.0259123 4.60892e-09 -1.61331e-08 -5.95556e-09 -2.22167 -0.733487 0.20892 -2.03217e-16 0.0 -3.88251e-19 3.74431 -4.2054 -1.59521 -0.790578 53.9332 0.972635 4.56242 22.2782 -16.8464 2.03217e-16 0.0 3.88251e-19 -3.82126 -33.9705 -7.936 0.269283 33.0886 -0.202445 -1.28785 13.639 10.9015
